/* XPM */
static char *a079f7087edb4660cddf27b7959903a7BNwoXAg9nser7Pn1[] = {
/* columns rows colors chars-per-pixel */
"69 120 123 2 ",
"   c None",
".  c #352B2E",
"X  c #372E30",
"o  c #382F31",
"O  c #373133",
"+  c #3A3435",
"@  c #3A3A37",
"#  c #363639",
"$  c #3D3738",
"%  c #363A3C",
"&  c #3E3B3A",
"*  c #413E3D",
"=  c #3E423E",
"-  c #41413E",
";  c #373E40",
":  c #383F40",
">  c #3B4341",
",  c #3F4942",
"<  c #3A467E",
"1  c #3E4B7A",
"2  c #444542",
"3  c #484745",
"4  c #434C45",
"5  c #494A46",
"6  c #434C49",
"7  c #4B4D49",
"8  c #445047",
"9  c #47534A",
"0  c #4A554C",
"q  c #4C584F",
"w  c #50544E",
"e  c #475052",
"r  c #4C5651",
"t  c #4E5A51",
"y  c #4D5658",
"u  c #4F5A59",
"i  c #525651",
"p  c #525D54",
"a  c #555E59",
"s  c #585F58",
"d  c #556057",
"f  c #566259",
"g  c #5B655D",
"h  c #5B695E",
"j  c #465061",
"k  c #545F65",
"l  c #414D74",
"z  c #404C78",
"x  c #455176",
"c  c #556065",
"v  c #5B6662",
"b  c #5E6B61",
"n  c #58666F",
"m  c #5F7063",
"M  c #526176",
"N  c #616E63",
"B  c #606F68",
"V  c #627265",
"C  c #667669",
"Z  c #67796B",
"A  c #6A7C6D",
"S  c #6C7F70",
"D  c #6F8373",
"F  c #2E3C86",
"G  c #28368F",
"H  c #2C3A8B",
"J  c #303D88",
"K  c #293790",
"L  c #2D3C91",
"P  c #354283",
"I  c #38478B",
"U  c #314294",
"Y  c #344699",
"T  c #3A4D99",
"R  c #394DA2",
"E  c #3D52A5",
"W  c #3F54A8",
"Q  c #46588C",
"!  c #455C9F",
"~  c #54668B",
"^  c #4E6598",
"/  c #546890",
"(  c #5E7692",
")  c #4157AA",
"_  c #445CAB",
"`  c #4B64A3",
"'  c #4E68A4",
"]  c #516AA4",
"[  c #5870A4",
"{  c #5671A8",
"}  c #5976AC",
"|  c #5B79AB",
" . c #4A63B4",
".. c #4F69B4",
"X. c #4E69B9",
"o. c #516DBA",
"O. c #5370B7",
"+. c #5674BB",
"@. c #5977BC",
"#. c #5B7ABD",
"$. c #607FAE",
"%. c #76928F",
"&. c #6789B2",
"*. c #6988B4",
"=. c #6283BE",
"-. c #6C8FB9",
";. c #6E92BC",
":. c #7093B6",
">. c #7296B9",
",. c #678AC0",
"<. c #698CC0",
"1. c #7195C2",
"2. c #779DC0",
"3. c #789FC4",
"4. c #7BA2C3",
"5. c #85A8A7",
"6. c #8BB2B3",
"7. c #80A9C7",
"8. c #8AB6C5",
"9. c #88B3C9",
"0. c #91BDC0",
"q. c #95C4CB",
"w. c #9BCCCE",
/* pixels */
"                                                                                              . . . . .                                   ",
"                              . . . .                                                     . 2 C C C C C 3                                 ",
"                            0 N N g w .                                                 - p V D D D D D C 7                               ",
"                          w C D S A s .                   . . . . . . .               . 2 h D D D D D D D f *                             ",
"                        w C D D S N s .                 + 5 s s i s s w 3             . 2 g V D D D D D D Z p - o                         ",
"                      7 C D D D A C N .               + 7 V S S D D D S g 2           . 3 g g V V V D D D D Z d - 2                       ",
"                    . C D D D A A D C .               * V D D S Z S D D A g *         . 3 g g f h h D Z A D D Z g s 2 * o                 ",
"                    - Z D D D Z N D A *               5 D D D V N A S A S A g .       $ 7 h g N D D D N V D D D Z g f g +                 ",
"                  o A D D D D A C S A g o           * V D D A D S D Z N V Z g O     . 3 f g g N S S D D h V D D D A 0 s +                 ",
"                  o S D D D D D D A g g +           3 D D D b g Z S D S A g g 7 o   . 4 f g g g g g S D V d m D D C o .                   ",
"                  o A D D D N N D A g g o         - h D A d 0 t p d N D Z h h 9 X   . 4 f g v g g g h g g d h D D D Z o                   ",
"                  o A D D D N N D A v g o       . - d h d 9 t p p q w f h f d q O   X 2 p f N S S h g g Z A D D D D A o                   ",
"                $ N D D D D m h D S g p i +     . - d f q f f g g f i 0 q d t d O   . , q d N D S g g g Z D C V D D D V *                 ",
"                $ D D D D V h h V N g g f +     . & t p 0 v Z Z Z Z h q 0 p q q 2 O . - q d g C D A N g Z D V h D D D D +                 ",
"                $ D D D D h f g g g g g t +     X # 4 0 9 p h D V V h p q q q q q + . = q d f N D D N g V V h h D D D D 5 $               ",
"                * D D D D N f g g b g g 0 3 $   . + , 9 9 t q A N d p p q 9 9 d p $ . & 8 t d h C h s g g g g h C D D D V 5 $             ",
"              & 0 D D D Z h f g g h g g 0 d &   X X > 6 0 g 0 Z D m f p t 9 9 9 e X . # , q d g g 0 7 d g g g g g D D D D h 5 &           ",
"              * D D D D g f g g s g g g q i - $ . # ; : 0 f 9 m D D D m 9 9 , ; ; X . # , 9 t p s 0 0 p g g g g N D A D D h h 5 $         ",
"              - D D D D h f h p 9 q g g d 0 f -     + > 6 8 0 0 m D D b 9 , ; ; ; X . # ; , t p p 9 8 0 a g g C D A d A D D h d 7 *       ",
"              2 D D D f f g g s 9 w g p p 0 d 2 X   X ; > ; f r m D v 9 6 ; > > > O X ; > > q t t 9 0 8 a v g V D A d q D D h d g w .     ",
"            5 S D D D d f g f i 8 0 a g g 0 0 , + X X > i p > q d d q , % , i t f c g 6 ; ; > 6 d t 0 9 d h g V D D A p A D 5 7 g w .     ",
"            5 D D D f g Z D N i d f p g g q 8 , : 6 a a p p q 0 , > > , q q d S S S N p 6 ; > , 0 p 0 9 d h g b V D D p A D Z 0 + O .     ",
"            5 D D D d g A D V g g f q g v r 8 , : 6 b A C p p p r r y t a h Z D D D N f r 6 > > 9 9 9 9 0 t p g N D D g g A D w o         ",
"          5 N D D h f C A D C g g f 0 g g r , > 6 p V D D V p p p t d b Z Z D D D C g a t 9 ; > 8 9 9 9 9 9 p g h V V g p Z D w .         ",
"        . w D D A p g S D A N g g f q g g q > ; e N C V N D V g f b m A D D D V m f p t d q , > > 0 8 p q 8 p g g g N g s Z D h 7         ",
"        . w D A V d g S D V g g g f q g g r , 6 a Z S V N V V V m D D D C m m f d t p p f h q > > 9 9 f t 0 p g g g g g s N A D i .       ",
"        - g D Z s g g S D N g g g f q a f 9 > t C D Z D S N h V m m Z m d p d p d d d f C C q , > 8 0 p q 8 p g g N g g g p C D p o       ",
"      o i D D V d g g Z A g g g g f p 0 8 4 > t C C B D D D D N d p d p p t d d g b h Z D V p q > 6 8 0 8 0 p g g g g g g s Z D i o       ",
"      o i D C d g g g b g s f g g g a p 0 4 4 p C A V S D D D D h d a a d p g b b D D D D V p t ; , 8 9 0 8 p g g g g g h a C D i o       ",
"      o s D C p h g g g g s f g g g g v q - p g C D Z N D D S S D D C g h h b D D D D D D V p q , ; 9 9 8 0 p g g g g g g s C D p .       ",
"    . f D D C s g h h g g s f g f q g g 0 , d h C D A N D D N g A D D D D D D D D D D D D V p u t ; 9 9 0 8 p g g 0 0 g g p C D i o       ",
"    . g D f 3 g g g g g g f g g s q g g 0 , d h C S S A N D S S V h C D D D D D D D V A V f p p t , 9 9 8 0 p g s 0 0 g h g h Z p .       ",
"    . g D s - g g h g g g f f g d t g g 0 p g h C S D S g N D D A A S D D D D D N N C D m p p p p V 8 9 9 9 q p d 8 9 g g g g C i o       ",
"    . h D p * d f g g f f p f g a 0 t t 9 f f f N A D S Z v N N S D D D S V V V g C D V f p p p p D 8 8 9 9 9 p f 9 0 g h g g C p .       ",
"    . - 7 w p p p g g d p p f h d 8 4 8 8 g d d g N V C D C b v V V V C N g g C C D C f d f p d V D 9 8 9 9 9 q d 9 0 g g g g C g -       ",
"      . . w V p s g g p p p p p t 8 , , 0 f d t a s f N C C V C N g g g N C C C Z Z f a f f d V D D p 8 9 9 9 p f 0 9 p g g p V V 5 .     ",
"        . w V p p h g s p p q 9 9 8 , , p d t d i q p a a d m m f a a a s V C g g g f g g h V D D A h 9 8 9 9 q f 9 8 0 f g p f h 4 o     ",
"        . w C p p g g p q p q 9 9 8 4 8 t t t t q q 0 q r r r t t r r y i i f f f g v g b C D A A m N 8 8 9 9 p f 9 0 8 g f q q p 5 .     ",
"        $ i V p p g h a p p p q 8 , 4 t t 0 0 0 u k c k c Z Z Z C Z C C C B q q 0 f f f N S Z b N D D q 8 9 9 i a 9 8 0 f q 0 q a 5 +     ",
"      o i V p p f h g p p p p q 8 , , d 0 9 d v 1 K H L T w.w.w.w.w.w.w.q.6.v v v r 0 0 p g N D D D D 0 8 9 9 9 8 0 0 8 g 0 0 q f g i .   ",
"      o s V p s g g N p i p q 9 8 , , t g g P F K G ` q.q.w.w.w.w.w.w.:.L Y ......n g t 0 t N D D D D 0 8 9 9 9 t f 0 8 g r 9 & 3 g i .   ",
"      o w V p p h g g a p g p 9 8 8 k F F F H K | 9.4.@.=.w.w.w.w.#.T E  . .X.X.9.0.^ F l p q f f D D q 8 0 9 9 q g 8 0 0 0 8 = 3 g i X   ",
"    o i h d p p v g g p p f p 9 8 8 c G K K E _ O.=.#.X.+.w.w.{ ! _ _  .o.@.9.8.^ ) U K z f 0 p d h N 8 8 u t 9 q g f f 0 9 0 4 w g i .   ",
"    o f N p p d g g h d p f p q 9 q c H W W  .X.X.X.=.4.4.' ' _ )  ...=.7.>.] ] L G K K z p 9 f p q g 8 8 d p 0 q g g g q 9 9 9 5 7 f 7 . ",
"    . g N 7 5 f b g g p d f p q 9 9 e x X.X.X.X.,.3.;.| } E E X...,.4.;.| ] G G K G G P j 6 0 V f d d 8 8 p p 8 q g v g 0 9 9 9 = * g a . ",
"    . 7 0 * * w g g g a g d p t 9 , > r ~ / &.1.;.&.} R E X.X.,.1.-.&.' G G G G < 1 1 j 6 4 f D V d p 4 8 d p 0 0 a h g 0 9 9 9 4 5 g s . ",
"      . .     $ g g h p f d p t 9 6 > = r y %.5.( I E ..X.<.,.;.>.! G F < P < < t y p r r a C D D f q 4 8 p p 9 0 0 h g 0 9 9 9 8 0 q 5 . ",
"              $ h v g d g d p 0 , t u > % ; r a i M ] ] { 6.6.Q P P P l p p a a > : 6 b S D D D D q , = 8 p p 9 0 0 g h t q 9 9 0 - . . . ",
"              & g g f g g d p 0 t D Z q , > ; > > 9 f a d d d d d u f y > > > > > > m D D D D D V ; ; > 8 p p q 9 q g g h t 8 9 9 - X     ",
"              & g g p p g a p 0 9 g v D D , > 6 i e > ; > > > ; > > > , r 9 e , > m D d d D D C > ; > > 8 9 t d 9 9 g g g r 0 9 9 2 X     ",
"              $ g g p p g a p p q , 8 v v v 6 e d u t t p t t p t t p p t , , > ; > > f D D V = > > = > , 8 u d 9 9 q g g 0 9 9 9 8 2 .   ",
"              * N g p p f d d g a 9 8 > , > ; > 4 9 r p p p p p t 9 q 0 , , , ; ; ; f D D m 9 9 , % > > , 8 t d 9 9 9 h b t 9 9 0 8 , .   ",
"              & g g p p g d f g d 9 9 9 , > ; > > > 8 9 0 0 q 0 , , , , , > > ; r m D f q q q q , > ; ; > , p d 9 9 9 t r 0 9 9 9 9 4 .   ",
"              $ h g p p f d f g d 9 9 9 e > ; , , 4 9 9 8 , , , , > > > > > 9 9 e t p q q q p p 9 > > ; > 9 t f 9 9 p 9 8 9 9 9 9 9 4 .   ",
"              $ g g p p s p f h d 9 9 9 9 > % , 9 9 9 9 9 9 0 0 9 8 e 9 , 9 p p 0 9 9 t p q p p t , > ; > , 0 t 9 t h 9 9 9 2 4 9 9 4 .   ",
"              * g g p p p p g g f 9 0 9 , > > 8 9 9 0 9 9 p p p u p p u p p p p p p p p p p p p t , > ; , , 8 0 t 9 p p 9 2 + @ 3 8 2 .   ",
"              * g h d p p p d g d 9 9 9 , > , 8 0 9 9 9 9 p p d d d d f a d d d p p p p p p p p u 8 > ; > , 4 t f 9 9 v t +     & - = .   ",
"              * g g p p p p f g d t 9 9 > > > 8 9 9 9 9 9 d q q f h g g g g g g p p p p p p d p t t > ; , , 8 t f 9 9 g a $       . . .   ",
"              * g g a p p p f h h d 9 9 > ; > 8 9 9 9 9 q q p d g g h h N N N g d p p p p d h g d t > ; > , 4 t d 9 0 g +                 ",
"              * N g p i p p f g v f 9 9 > ; > 8 9 9 9 9 9 d q g g d V D S D D g g p p p q d g g t d > ; = > 8 9 9 9 9 9 O                 ",
"            * g g g g g p p p d h f 9 9 > = = 8 9 9 9 0 0 t p g g d N D D D S g g p p p f v g g d p , = > > 4 9 t f 8 0 O                 ",
"            * g g g h g a q 9 p h f 9 9 > = , 9 9 9 9 9 0 p p g g d V D D D D S h a p p f N Z f t p , > % , , 8 t f 0 8 O                 ",
"            2 g g h h g d q 9 p h d , , > ; = 9 9 9 9 9 8 p p g g f V D D D D D h g a p f h b g p p , > ; > , 4 8 t d 0 O                 ",
"            * g g g g g p q 9 i v h u , ; ; , 8 q q 9 9 0 p p g g f N D D D D D h g a p f g h h f p , > ; > , 4 0 q g 0 o                 ",
"            * g g g g g p 0 9 p g f 9 9 > > 6 9 t q 9 9 0 p p h h d N D D D D D A b d p p f g g g p 4 > ; > , 4 8 0 g 0 X                 ",
"            - g g h g f i 0 9 q g f 9 9 > , 4 9 q q 9 9 q p t f g d N D D D D D D N g p p s h g g p 8 = ; > = , 4 0 p = O                 ",
"            * g f g g p q 9 9 p g f 9 9 > > 8 q t t 9 0 p p p g h d V D D D D D D N g d p s g N g p p 4 > ; > , 4 9 8 X                   ",
"            * p p g h d 9 9 9 p f p 8 9 ; , 8 t p q 9 0 p t h f g d b A D D D D D V b d p s V S g p p 4 > = > , 4 8 8 .                   ",
"            * p p h h p q 9 q 9 0 8 , , > > 8 d f q 9 0 p p D d g h d b D D D D D D N g s s N A f d p 8 > ; > > , , , .                   ",
"            & p p h g d 9 9 9 9 9 9 > > > > 8 u f q 9 9 9 p D d s h d b D D D D D D V g f s g g h h p 8 > % > , , , , .                   ",
"        . - p p p h h p q 9 9 9 9 9 - % > , 8 d d p q 0 0 q D d f h f b D D D D D D V h f s g g g g p , > > > , , , , .                   ",
"        . - p t p h h p q 9 9 9 9 8 , = % , 8 d h d q 9 9 q D D h f f m D D D D D D S V f s g N A h u t , > > , , , , .                   ",
"        . - p p p g g q 9 9 9 9 8 , , ; % , 8 p h f t t t d D D h f g g m D D D D D D V g g h h D g p p , ; > , , , O                     ",
"        . - p p p g h 0 9 9 9 9 8 , , ; > 4 8 d h f d t d t A D Z h f f h D D D D D D C h g d h D g p p , ; ; > , , .                     ",
"        - 0 q p d f f 0 9 9 9 8 4 , > ; , , 8 d g f p d p p D D D b d g f V D D D D D A m f p f D g g p 6 > % > , = .                     ",
"      . - p p p q - i 0 9 9 9 8 , , , > , , 8 p g f p t p t A D D C h f g f D D D D D D C f p p V h g p 8 > ; > , = .                     ",
"      . 2 p p p q X t 0 9 9 9 8 , , > > , 8 8 d h g d p p t D D D D V d g f Z D D D D D Z h p p p V v d 8 = ; > , , .                     ",
"      X 2 p p i 5 X t 0 9 9 9 , , , > % , 8 9 d h h f p p p D D D D V h g g d D D D D D D C p p p D b p 8 , ; : = = .                     ",
"      + 5 p p 9 . X q 0 9 8 8 , , > ; ; 4 9 9 a C Z f p p t C D D D D V p g d A D D D D D Z d p d D h p p 6 ; > = .                       ",
"    . 0 f p t 0 . . 8 9 9 8 - = , > ; ; = 8 9 a C C h h p p p Z D D D C d h g p S D D D D D Z p d D b p p 6 ; > = .                       ",
"    . w f p 5 X   . 9 9 9 8 , , , , = ; , 9 9 p C Z g g p p p Z D D D D C d g g f A D D D D D Z d D h d p 6 ; ; % .                       ",
"  . w g f p 4 .   X 8 9 8 , , , , , ; ; , 8 9 f C D C g p p p A D D D D Z p g h g f Z D D D D D D D A h p 8 > ; % .                       ",
"  . i g g 0 +     . 8 8 = , = , > > > > , 8 8 d C D Z g f p p A D D D D D V d g g p f Z D D D D D D D f p t 6 ; % .                       ",
"  . i g g 7 .     . 8 , , , = @ # = > > 4 8 9 a C D Z v g p p A D D D D D A p g g g d f C D D D D D D g p t 6 ; % .                       ",
". 5 s g i *       . , , , , @ . O = ; , , 8 9 f C D A V d p p V S D D D D D N f g g g p f Z D D D D D V f p 8 ; # .                       ",
". a g g 5 .       X , , , , @ . . # > 4 8 9 8 d C D D A p d d g A D D D D D S p g h g f p f C D D D D D Z f 0 , +                         ",
". s g i -         X , , , = @     + % 9 9 9 9 d C D D A h f g g C S D D D D D N g g g f d p f Z D D D D D V f 3 .                         ",
". w i *           X = , , +         O 8 9 9 9 d C D D D D p g g g C D D D D D D d g g g f d p d Z Z D D D D C 0 .                         ",
". . .             . , , = @         X 9 9 9 9 d C D D D D f g g g Z D D D D D D g g g h g g p p p p Z D D D D d .                         ",
"                  X , , O           X 0 9 9 9 d C D D D D D f g g g V D D D D D D g g g g g g p p p p p m D D d o                         ",
"                  . . .             X 9 9 9 q f C D D D D D D f f g C D D D D D D D h f g g g g p p p p t d d q 7 . .                     ",
"                                  @ 7 9 9 9 p f C D D D D D D A h f C D D D D D D D A N f g g g f p p p p d q d p 0 0 o . .               ",
"                            . . @ 4 0 8 9 9 p f Z D D D D D D D A h g C D D D D D D D A V d g g g g g p p t d t p p q 9 0 7 $             ",
"                    . . . = = - 4 8 8 0 q q p d Z D D D D D D D D A N V D D D D D D D D A h f h g g g g f d t d p p d q p p 0 *           ",
"              o . . - = = 4 9 9 0 q q q p p i g C D D D D D D D D D A C Z D D D D D D D D A N f g h g g h h f d p p p p p i p 9 &         ",
"              o - - 0 q 0 q q q q p p p p p d g C D D D D D D D D D D D Z D D D D D D D D D A N f g h g f f f f d d d p p p p p 0 -       ",
"              $ p p i p p p p p d p q t d t g g C D D D D D D D D D Z A D D D D D D D D D D D D h f g g d p t d g f g d d d p p p 3 .     ",
"              $ 0 p p p t p d q q p d p p d g h C D D D D D D D Z V N C D D D D D D D Z Z Z Z D D h f h d p p p t d g g h g f p a 5 .     ",
"                X q p p d d p q q d p p t g h h C D D D D Z D m h Z D D D A D A D Z g p p t f D D D h f g d p p d t t p f g g g g w .     ",
"                  . q p q q p d d t p p p h A D D D D D D p t Z D D D D C p q p p p p p p p t d D D D h g d p p q p p p p p g g g 0 .     ",
"                    X O 9 d p p p p p t g A D D D D Z d d D D D D h d p d h g p t m D D m t p f D D D D h g d p d q p p t p p - . . .     ",
"                        + X - p p p g g d Z D D V f d f A D h d d g g g f p f A D D D D D D D D D D D D A b p p p d p p p p p - .         ",
"                            $ - d g g g p g g g f g f g g g g f f f d d h Z Z D D D D D D D D D D D D D D b d d t d t t p - @ @           ",
"                              & 5 g g g g f f g g h g g f f d d d m C V Z D D D D D D D D D D D D D D D D A b p d t p p = +               ",
"                                & 2 5 g g g g g g g g d d d m V V A D D D D D D D D D D D D D D D D D D D D V p d p p - +                 ",
"                                  o + 5 7 7 3 3 p g g m m h D D D D D D D D D D D D D D D D D D D D D D D D V d g w 2 o                   ",
"                                      . . . . . * p V D D D D D D D D D D D D D D D D D D D D D D D D D A C h g a 2 .                     ",
"                                            * * $ w D D D D D D D D D D D D D D D D D D D D m D Z Z Z Z h d f g i .                       ",
"                                          . i g f h A D D D D D D D D D D D D D D A A A h p p p a p p i f s a s 0 .                       ",
"                                          . w f g g p f D D D D D D D D D D D D f p p p p g f g g f g g g 2 . . .                         ",
"                                            o o 7 g g g p a S D D D D D Z d d p g g g g h w X X o o o o o                                 ",
"                                                + $ - g g g f a Z D V f d g g g g g 2 + + +                                               ",
"                                                      2 h g s g g f g f g g g g g 2                                                       ",
"                                                        2 g g N h f g h g g g h 2                                                         ",
"                                                        + 3 f g h h f d f f s 3 O                                                         ",
"                                                          X 7 p f f p q q 0 2 .                                                           ",
"                                                            X 2 q t 0 9 4 - .                                                             ",
"                                                              . - 8 9 8 - .                                                               ",
"                                                                . = 4 - .                                                                 ",
"                                                                  X . .                                                                   "
};
