/* XPM */
static char *df7eb8dcd9034044c23c8c5af18cb84azUXp6cAi1u5ka4Bo[] = {
/* columns rows colors chars-per-pixel */
"46 75 183 2 ",
"   c None",
".  c #352B2E",
"X  c #362B2E",
"o  c #352C2D",
"O  c #362D2F",
"+  c #362F31",
"@  c #372F31",
"#  c #363031",
"$  c #373031",
"%  c #373032",
"&  c #373133",
"*  c #383132",
"=  c #393133",
"-  c #383233",
";  c #383333",
":  c #393533",
">  c #383434",
",  c #383534",
"<  c #393535",
"1  c #393635",
"2  c #3A3636",
"3  c #3A3737",
"4  c #3B3737",
"5  c #3D3737",
"6  c #393836",
"7  c #393937",
"8  c #3A3A38",
"9  c #3A3B38",
"0  c #3B3B39",
"q  c #3C3838",
"w  c #3C3938",
"e  c #3E3B3A",
"r  c #3A3C39",
"t  c #3B3D3A",
"y  c #3D3C39",
"u  c #3D3D3B",
"i  c #3E3E3B",
"p  c #3F3F3C",
"a  c #3C423D",
"s  c #3F423D",
"d  c #3F423E",
"f  c #3D443E",
"g  c #3D453F",
"h  c #3F443F",
"j  c #3E463F",
"k  c #5B5F1C",
"l  c #5B5F1D",
"z  c #5A5E1E",
"x  c #5A5E1F",
"c  c #575D26",
"v  c #5A5E20",
"b  c #595F27",
"n  c #555B2A",
"m  c #565C28",
"M  c #545B2C",
"N  c #595F28",
"B  c #40433F",
"V  c #454F3A",
"C  c #4E573B",
"Z  c #4C563F",
"A  c #4F5838",
"S  c #4E583F",
"D  c #515933",
"F  c #505836",
"G  c #505939",
"H  c #545C39",
"J  c #555E3E",
"K  c #596031",
"L  c #3E4740",
"P  c #3F4941",
"I  c #3F4942",
"U  c #3F4A42",
"Y  c #404440",
"T  c #414540",
"R  c #404640",
"E  c #414741",
"W  c #424742",
"Q  c #444642",
"!  c #454743",
"~  c #474644",
"^  c #414943",
"/  c #424842",
"(  c #424943",
")  c #404A43",
"_  c #404B43",
"`  c #444B45",
"'  c #464A45",
"]  c #414C44",
"[  c #414D44",
"{  c #424D45",
"}  c #434E46",
"|  c #434F46",
" . c #444F47",
".. c #484E48",
"X. c #455040",
"o. c #445047",
"O. c #4B5640",
"+. c #4C5540",
"@. c #4D5741",
"#. c #495444",
"$. c #495445",
"%. c #4A5444",
"&. c #4A5544",
"*. c #465048",
"=. c #465249",
"-. c #475249",
";. c #47534A",
":. c #47534B",
">. c #485348",
",. c #48534A",
"<. c #49524B",
"1. c #4A524B",
"2. c #4B524B",
"3. c #495449",
"4. c #48544A",
"5. c #48544B",
"6. c #49544C",
"7. c #49554C",
"8. c #4B544C",
"9. c #4B544D",
"0. c #4A554D",
"q. c #4A564C",
"w. c #4A564D",
"e. c #4B564D",
"r. c #4B574D",
"t. c #4B564E",
"y. c #4B574E",
"u. c #4D564E",
"i. c #4C574E",
"p. c #4C574F",
"a. c #4C584E",
"s. c #4C584F",
"d. c #4D594F",
"f. c #535D43",
"g. c #535D47",
"h. c #525D4C",
"j. c #4D5850",
"k. c #4D5950",
"l. c #4F5851",
"z. c #4E5A50",
"x. c #4E5A51",
"c. c #4F5B51",
"v. c #4F5A52",
"b. c #4F5B52",
"n. c #505650",
"m. c #505B51",
"M. c #505B52",
"N. c #505B53",
"B. c #515B53",
"V. c #505C52",
"C. c #515C52",
"Z. c #515C53",
"A. c #505D53",
"S. c #515D53",
"D. c #525D54",
"F. c #525D55",
"G. c #525E54",
"H. c #535E55",
"J. c #535F55",
"K. c #545F56",
"L. c #575F58",
"P. c #5B6343",
"I. c #5C6344",
"U. c #5C6449",
"Y. c #546056",
"T. c #556057",
"R. c #556157",
"E. c #586255",
"W. c #566058",
"Q. c #566158",
"!. c #566159",
"~. c #576159",
"^. c #576259",
"/. c #57625A",
"(. c #58625A",
"). c #58635A",
"_. c #59635B",
"`. c #59645B",
"'. c #59645C",
"]. c #5A645C",
"[. c #5A655C",
"{. c #5B655D",
"}. c #5C665E",
/* pixels */
"                                                                                            ",
"                                . o . . . . . . . . . . . .                                 ",
"                            . < d d W ' ! ! ! ! ! ! ! ! L d < .                             ",
"                          . ; d 5.6.S.b.S.S.S.S.S.S.S.v.-.-.d > .                           ",
"                          . p ,.4.b.b.J.S.S.b.J.S.S.b.v.4.-.7.t .                           ",
"                          . i ,.7.b.J.b.S.b.J.b.S.S.k.-.-.4.-.u .                           ",
"                          . i -.-.7.v.J.S.S.J.J.S.d.4.4.4.=.4.d X                           ",
"                          . 0 | 4.4.4.r.6.6.6.6.6.5.4.-.=.4.U t X                           ",
"                          X w _ } } -.-.p.J.J.J.J.p.-.-.| | U 7 X                           ",
"                          . 7 _ U U p.v.J.Q.Q.Q.Q.J.v.p.U U U 0 X                           ",
"                          . 0 U )  .Q.{.Q.J.b.J.J.L.{.Q. .) U 7 X                           ",
"                          . 7 U } {.}.J.J.b.J.v.J.b.L.}._.| U 0 .                           ",
"                            ; < | _.L.S.S.S.S.S.b.J.J.{.}.| < &                             ",
"                              < | {.J.J.S.S.S.S.J.b.Q.{._.| >                               ",
"                              < | {.J.S.S.S.S.S.J.J.Q.{.{.| <                               ",
"    < w w p w i w <         o & | {.J.S.S.S.S.S.b.Y.Q.{.{.| < o         5 < w w p e e w     ",
". = B d.S.S.S.S.r._ & ; ; O o : _ (.J.S.S.S.S.S.S.`.}.{.(._ ; o + + o & _ 4.r.S.b.J.b.' + . ",
". W d.S.S.S.S.S.Y.r.o.o._ _ 7 . = ,.v.S.S.S.S.S.`.}.}.(.,.; o r U U U U ` r.J.S.S.b.J.p.W . ",
". ! d.S.S.S.S.S.Y.b.b.d._ _ j j d U Y.J.S.S.S.`.{.Q.Y.S.o.j d j U U U U -.6.S.S.S.S.p.7.W . ",
". _ 6.e.r.r.d.6.d.S.S.Y.` _ U U U U Y.{.(.`.(.Y.Y.Y.b.b.,._ U U U U U U -.6.r.r.r.r.7.-.W . ",
". j 6.6.r.6.d.5.r.r.v.r.U U U U U U Q.}.}.}.{.J.S.S.S.b.4.U U U U U U U o.4.6.b.b.J.v.6.L . ",
". a d.K.Y.K.Y.d.r.6.q.q.| | U U U | Q.}.}.{.`.S.S.S.S.b.6.U U U U | | | 5.6.b.`.}.}.}.v.a . ",
". d v.}.}.}.{.K.b.S.b.J.6.4.o.U ) -.(.}.{.`.S.S.S.S.S.b.b.o.U U ` 5.S.S.S.S.S.S.{.{.}.v.a . ",
". a v.}.}.}.J.S.J.b.J.b.7.4.4.-.-.-.Q.}.}.`.S.S.S.S.S.Y.b.4.-.-.r.v.S.S.S.S.S.S.J.{.}.v.a . ",
". a v.{._.K.J.S.S.S.S.S.b.q.4.4.7.v.J.Q.}.{.S.S.S.S.S.S.S.5.4.4.r.S.S.S.S.S.S.S.J.`.{.v.d o ",
". a r.Q.K.S.S.S.S.S.S.S.S.d.6.4.7.b.J._.{.`.S.S.S.S.S.S.S.5.6.v.b.S.S.S.S.S.S.J.).{.{.v.a o ",
"o a 6.J.S.S.S.S.S.S.S.S.S.S.v.r.6.S.b.Q.}.{.Q.Y.Y.Q.Y.Y.S.r.v.B.S.S.S.S.S.S.S.Q.{.{.{.v.a . ",
". d 6.J.S.S.S.S.S.S.S.S.S.S.S.S.J.S.J._.}.}.{.{.}.{.{.{.S.S.S.J.Y.Y.J.J.J.J.K.`.{.{.}.v.a + ",
". a b._.J.v.S.S.S.S.S.S.S.S.S.b.b.S.S.Q.}.}.{.{.{.}.}.{.J.S.B.Q.}.}.}.}.}.Y.J.B.S.(.{.v.d . ",
". a b.Q.b.J.S.S.S.S.S.S.S.S.d.6.6.S.J.(.{.{.J.S.J.`.}.}.{.6.,.K.}.}.}.}.Q.J.S.S.S.S.`.v.d . ",
". a v.{.Q.J.S.J.S.S.S.S.r.6.6.-.4.6.b.(.`.J.S.S.S.Q.}.}.{.6.,.e.p.B.}.}.Y.S.S.S.b.J.Q.v.a . ",
". a v.{.{.Q.Q.J.S.v.6.d.5.4._ i i i e.Y.J.J.S.S.S.Q.}.Q.! p u ) -.6.S.B.Q.J.S.S.J.J.Q.v.a . ",
". j B.}.}.}.}.J.v.e.-.4.W W i . . . 2.S.S.S.S.S.S.Q.{.n.. . . i W W -.-.v.B.v.K.Q.L.).b.d . ",
". B n.Q.(.(.(.1.' ) | ' & .       . 2.S.S.S.S.S.K.(.(.2..       . & | ' ' | 1.Q.Q.Q.Q.6.r . ",
". . d -.,.-.-.< . . . .           . 2.S.S.S.S.S.`.}.(.2..           . . . . < U _ U U 0 + . ",
"    = ; + = ;                     . 2.S.S.S.J.`.}.}.(.2..                     + o & + &     ",
"                                  . 2.S.K.(.(.}.}.}.(.,..                                   ",
"                                  . 2.S.(.}.}.}.}.}.(.2..                                   ",
"                                  . 2.S.Y.}.}.}.}.}.(.2..                                   ",
"                                  . 2.S.(.}.}.}.}.}.(.2..                                   ",
"                                  . 2.S.Q.}.}.}.}.}.(.2..                                   ",
"                                  . 2.S.Q.}.}.}.}.}.(.2..                                   ",
"                                  . 2.S.Q.}.}.}.}.}.(.2..                                   ",
"                                  . 2.S.Q.}.}.}.}.}.(.2..                                   ",
"                                  ; ,.S.Q.}.}.`.}.}.(.8.<                                   ",
"                                + _ v.S.Q.}.{.J.`.}.(.d.U +                                 ",
"                                + U d.S.Y.}.{.S.`.}.(.d.U +                                 ",
"                                o U d.J.Q.}.{.J.(.}.(.d.L +                                 ",
"                                o _ d.Y.`.}.{.S.(.}.(.d._ o                                 ",
"                                ; ` B.Q.}.}.}.J.`.}.`.J.-.o                                 ",
"                                = B.B.(.}.}.}.S.Q.{.}.`.B.;                                 ",
"                                ; v.J.(.}.}.}.S.S.(.}.{.B.;                                 ",
"                                % B.B.(.}.}._.J.S.(.}.`.B.;                                 ",
"                                % h.J.Q.}.}.{.S.S.J.K.K.h.;                                 ",
"                                ; B.J.(.}.}.{.J.S.S.S.S.B.=                                 ",
"                                ; v.B.(.}.}.{.L.S.S.S.S.v.=                                 ",
"                                % B.B.(.}.}.}.}.J.S.S.S.B.;                                 ",
"                                % h.J.(.}.}.}.}.K.S.S.S.B.;                                 ",
"                                ; B.J.(.}.}.}.}.K.S.B.S.h.%                                 ",
"                                ; v.B._.}.}.}.}.K.S.J.B.B.%                                 ",
"                                % B.L._.}.}.}.}.(.Q.Y.J.v.=                                 ",
"                                % h._.}.}.}.}.}.}.}.Q.S.h.=                                 ",
"                                ; B.{.}.}.}.}.}.}.}.(.J.B.;                                 ",
"                                ; B._.}.}.}.}.}.}.}.Q.B.B.;                                 ",
"                                > B.M U.}.}.}.}.}.}.(.S.S.;                                 ",
"                              5 ..B.N I.}.}.}.}.}.}.`.(.B...5                               ",
"                              w d.S.N I.}.}.}.}.}.}.}.`.S.d.w                               ",
"                              4 5.K.N I.}.}.}.}.}.}.{.E.f.5.<                               ",
"                              w 5.h.b P.}.`.}.}.}.}.(.g.l &.<                               ",
"                              < &.x x J S.S.S.S.S.S.S.g.x &.w                               ",
"                              7 &.x k G d.S.S.S.S.d.5.@.x &.<                               ",
"                              < X.x k F S H d.6.e.5.Z n x X.7                               ",
"                              : V k n %.A c 5.A &.-.A k k V :                               ",
"                                  k @.-.D c %.x S -.F x k                                   ",
"                                          k   k                                             "
};
