/* XPM */
static char *_2d58c49ad6d4d7dc2051f8535c570dcVCVtdW4nxVWjgyN7[] = {
/* columns rows colors chars-per-pixel */
"46 75 173 2 ",
"   c None",
".  c #352B2E",
"X  c #36332E",
"o  c #362F31",
"O  c #392D37",
"+  c #373031",
"@  c #393233",
"#  c #3A3936",
"$  c #3D3B3A",
"%  c #38412E",
"&  c #3A4A2E",
"*  c #3B542E",
"=  c #3D5C2E",
"-  c #3B4334",
";  c #3D433D",
":  c #3E5334",
">  c #3E5C32",
",  c #3E642E",
"<  c #3F6C2E",
"1  c #3E6030",
"2  c #40433F",
"3  c #42553E",
"4  c #415D3C",
"5  c #415D35",
"6  c #41772D",
"7  c #417B2E",
"8  c #42643D",
"9  c #436B3A",
"0  c #416D32",
"q  c #427335",
"w  c #447B36",
"e  c #44723A",
"r  c #48743F",
"t  c #47793A",
"y  c #4A7F3D",
"u  c #4B3D57",
"i  c #4F3860",
"p  c #553A6A",
"a  c #3F4A42",
"s  c #434742",
"d  c #424C44",
"f  c #454E4B",
"g  c #484E48",
"h  c #425243",
"j  c #455D44",
"k  c #485946",
"l  c #47534A",
"z  c #4A554C",
"x  c #475948",
"c  c #4D594E",
"v  c #474D51",
"b  c #494955",
"n  c #4C4D5A",
"m  c #4F5A52",
"M  c #4F505A",
"N  c #4B5451",
"B  c #515D53",
"V  c #51525F",
"C  c #555D5A",
"Z  c #476244",
"A  c #476B41",
"S  c #4D644B",
"D  c #4F6B4B",
"F  c #496843",
"G  c #50654F",
"H  c #4D7545",
"J  c #4D7B42",
"K  c #517F46",
"L  c #53754D",
"P  c #537B4B",
"I  c #536254",
"U  c #546D52",
"Y  c #586F56",
"T  c #566159",
"R  c #5B655D",
"E  c #5A6B5A",
"W  c #577352",
"Q  c #587254",
"!  c #4F4E60",
"~  c #524065",
"^  c #545364",
"/  c #595D64",
"(  c #59556D",
")  c #5E5D6F",
"_  c #555E62",
"`  c #584F70",
"'  c #5C5374",
"]  c #645D7B",
"[  c #63597A",
"{  c #5E6663",
"}  c #5E6269",
"|  c #61636C",
" . c #60736A",
".. c #656178",
"X. c #69657A",
"o. c #687E7C",
"O. c #66727A",
"+. c #43842E",
"@. c #448C2E",
"#. c #45942E",
"$. c #479D2E",
"%. c #489D2E",
"&. c #468535",
"*. c #468B33",
"=. c #498D37",
"-. c #478139",
";. c #4B843D",
":. c #4B8B3A",
">. c #479431",
",. c #489433",
"<. c #479930",
"1. c #489930",
"2. c #4C9139",
"3. c #4E983D",
"4. c #4F8342",
"5. c #518345",
"6. c #4F9840",
"7. c #519645",
"8. c #608C65",
"9. c #668973",
"0. c #688478",
"q. c #645187",
"w. c #685D83",
"e. c #6D5D8C",
"r. c #665983",
"t. c #6D4597",
"y. c #70469C",
"u. c #6E5797",
"i. c #6F5D91",
"p. c #715D95",
"a. c #735D9B",
"s. c #6D6484",
"d. c #6A6F82",
"f. c #70648C",
"g. c #6C7088",
"h. c #756395",
"j. c #78639D",
"k. c #766C9D",
"l. c #747E94",
"z. c #747193",
"x. c #7448A5",
"c. c #774EA8",
"v. c #784CAD",
"b. c #7C5EAC",
"n. c #755CA3",
"m. c #7D4DB7",
"M. c #7E61AA",
"N. c #7B79A4",
"B. c #835DBB",
"V. c #8365B7",
"C. c #8772BE",
"Z. c #8374B5",
"A. c #8B5CCE",
"S. c #8557C3",
"D. c #8D5BD1",
"F. c #905ED5",
"G. c #9258DD",
"H. c #8D64CD",
"J. c #8D6ECB",
"K. c #8B61C6",
"L. c #8870C0",
"P. c #9568DD",
"I. c #916CD4",
"U. c #9757E6",
"Y. c #985EE7",
"T. c #9A5FE9",
"R. c #9B5EEC",
"E. c #9E5EF4",
"W. c #A05DF7",
"Q. c #A45EFF",
"!. c #A35EFD",
"~. c #A062F4",
"^. c #6F8288",
/* pixels */
"                                                                                            ",
"                                o o o . . & <.X . . . . . .                                 ",
"                            . & < < < : s 4 ,.d s s s s ; 2 q ,                             ",
"                          . @ : %.%.<.:.H J ;.B B B B B l z &.= .                           ",
"                          . ; A $.$.$.$.<.=.B B B B B c l Z y > X                           ",
"                $.$.$.    . $ A $.$.$.$.%.=.B B B B c l l >.9 ; = $.$.                      ",
"                $.$.$.$.  . $ A %.$.$.$.%.=.m m B c z l l >.<.>.#.$.%.                      ",
"                $.$.$.$.$.& $ k e <.$.<.:.Z c c c z l k *.1.1.$.$.$.%.                      ",
"                $.$.$.$.$.* $ a a e >.<.4.B T m I N l Z $.$.$.$.$.$.                        ",
"                  %.$.$.$.* u ` a a *.,.P T T T T m S A &.1.$.$.$.$.                        ",
"                    $.$.$.k x.D.! l =.L T B B B B T P *.a *.*.*.@.    I.                    ",
"            %.%.$.$.$.$.$.Z.!.!.R.{ 2.J B B B B B B J 2.{ d a $ * $.$.$.%.$.                ",
"          ~.7.1.$.$.$.$.$.7.N.A._ { ,.H B B m C B J 4.E R d # 1 @.%.%.%.%.%.                ",
"              1.$.$.$.$.$.$.L p a 4.J G B B B m B ;.4.R R h @ ' ^.$.%.1.%.%.  !.            ",
"              d.^.9.$.$.$.$., @ > <.D B B B B B H J  .M.M.v @ ^ 9.6.^.7.<.w i t.O           ",
"    $ $ $ $ $ A.~.b.+.$.$.+.* @ a <.D B B B B m =.K j.~.W.M @ * +.7.L.7.%.< $ $ $ $ $ $     ",
". o s m / B m B.Y.c.- $.$.= X # 4 >.D m _ / m G :.P j.T.G.b + X 1 %.%.%.1.r c B B B B d o . ",
". s c i.F.B B C C m Z $.$.$., : ,.a m m a.H.G ,.P R { R N + . , <.%.%.<.A c m B B B B N a . ",
". s m _ ) m m B m B G D >.<.< 8 ,.a I M.T.E.H.6.W T I m l a ; q $.$.%.< n.a.B B B B N z s . ",
". s z c c c N a.O.;.J B A , J < 8 a T g.K.P.0.L I B B m l a a e $.>.9 a ' ( z c z c l l s . ",
". s l c N N c g.8.%.,.J a a e &.a a T R s.z.1.G B B B _ u.v a 8 < e a a l l z m m B B z a . ",
". ; z I I I I J ,.<.%.$.Z d e &.a a I { E P :.B B B } a.E.q.b a a l l a l z m T R R { m ; . ",
"X ; m R R R R I J ,.1.,.Z k t w d z T { P =.m m B B e.E.!.E.' a a l } C B B B I R R R m $ o ",
"#.8 B { R { B B m G G G z w t l l z T { 5.=.B B B m C r.E.( l l c ) E.) B B B B B R R m ; . ",
"$.4 m R R B B B H =.=.=.*.<.o.D.S.m T J 5.W m B B B B C ..N l l c _ w.B J =.=.:.I R R m ; . ",
"= q D T T B B H ,.$.$.$.$.;.k.!.Y.C m ;.5.T B B B B B B m l c r.i.B m m :.<.<.<.;.4.W m ; . ",
". 7 J B B B m :.$.$.$.$.$.H e.b.M.C H 4.P { T I T T T I H H S w.p.B B G H :.=.<.%.$.P m ; . ",
". q J S B B m :.$.$.$.$.=.J D D D D ;.W R R R { R R R W $.$.H I B T w.] _ B D =.=.=.W B ; . ",
". ; w ;.B B B :.1.1.1.1.D :.$.$.$.<.D T { R R R R R { W $.$.$.5.R X.Q.Q.h.T m m B R R m ; . ",
". ; w ;.B B m I I S S I =.$.$.$.,.D B T R R B I I T R Q $.$.$.1.4.X.Q.~.i.T B B B B T B ; . ",
". ; S J 4.m m B B B S =.1.$.$.=.Z z ;.=.:.4.m B I T f.H.C.6.$.$.:.C f.f.} m B B B B T m ; . ",
". ; m P =.T T I B m S %.$.$.+.: ; t <.$.<.2.B B B T j.!.E.S @.$.-.z m m T T B B B B T m ; . ",
". 2 B W 5.L R B m z Z $.$.&.m p % #.%.%.%.:.B e./ C s.B.c.3 +.%.w s l l B B m B I T T m a . ",
". 2 c T L $.Y z M ( _ +.$.1 ' J.  %.%.%.,.y R D.] | ) z X @.%.%.< - d d V M l T T T T z $ . ",
". . 2 l Z <.j # y.Q.G..   $.$.$.%.%.%.1.y I B B R V.B.g X @.%.%.%.#.X . m.y.@ s a a a $ . . ",
"    X + X # &.  U.Q.W.    $.$.$.%.%.%.y I B I R R | } z X @.%.%.%.$.@.        @ + + + +     ",
"                        $.$.$.$.#.* 9 G I T R R R { R z + @.%.%.%.%.<.J.                    ",
"                        $.$.$.$.@.X z B T { R R R R B z + +.%.%.$.%.%.L.                    ",
"                        %.%.%.%.@.. z [ | R R R { R R g .     %.%.$.$.                      ",
"                        %.%.%.%.  . g V.V.R { E { R R g .       %.$.$.                      ",
"                                @.X g I T R R R { R R z .                                   ",
"                                  +.G m T R R R R R T z .                                   ",
"                                  * t D E R { R R R R g .                                   ",
"                                  X 9 K W R { R R R T z .                                   ",
"                                  @ z y ;.Q { R R R T z @                                   ",
"                                @ 2 c B H :.E G R R R c s @                                 ",
"                                o s c B T W %.1.W R T m s @                                 ",
"                                + 2 c B T R Q D :.2.K m 2 +                                 ",
"                                @ 2 B T R R R I L P y y 7 X                                 ",
"                                @ 2 B T R R R B R R Q 5.y 5 7                               ",
"                                @ B B T R R R B T R R R I w ,.                              ",
"                                @ B B T R R R T B R R R B @                                 ",
"                                @ B B T R R R B B T R R B X                                 ",
"                                . B B T R R R I B B T B B .                                 ",
"                      %.%.      @ B B R R R R I B B B B B @                                 ",
"                      %.%.%.    X B B R R { R R I B B B m @                                 ",
"                      $.$.$.$.  @ m B T R R R R B B B B B @                                 ",
"                      $.$.$.$.  @ m B T R R R { T B B B B @                                 ",
"                      %.$.$.$.6 @ B B T { { R R B B B B c O                                 ",
"                      %.$.$.$.7 + m B R R R R R T B B B m @                                 ",
"                        $.$.$.7 + B B R E R R R T T T B c o                                 ",
"                        $.$.$.7 + B R R { R { { R R T B B @                                 ",
"                        $.$.$.7 @ B R { { E R R R R T B B o         $.$.$.$.                ",
"                          $.$.7 X B R R R R { R R R R B B @       %.$.$.$.$.                ",
"                          %.%.7 @ c T R R R R R { R T D 2.+.<.%.$.%.$.$.$.$.                ",
"                            1 : z B R R { E 7.:.4.:.:.;.H H 5 7 $.$.$.$.%.                  ",
"                              - y J 5.P 5.5.5.5.5.5.5.P B c # 0 $.$.%.$.%.                  ",
"                $.$.%.      , 1 &.:.:.:.:.5.R R R { R T B z @ , %.$.$.$.%.%.%.              ",
"                %.$.$.$.  $.#.w z B S U E E R R R R T m m z $ < $.$.%.%.%.%.%.              ",
"                $.$.%.$.%.  X $ l z =.<.1.:.B B B m I m l l &.$.%.$.$.$.%.%.                ",
"                $.%.$.$.$.$., @ s l =.$.$.:.B m B m z l d &.$.$.%.$.$.$.                    ",
"                  $.$.$.$.$.< @ a d *.$.$.<.y c c l d j w #.$.$.$.$.%.%.                    ",
"                    %.$.$.$.6 @ a a *.$.$.$.<.Z d 8 < J $.$.$.$.$.$.%.                      ",
"                      $.$.$.      a *.$.$.$.<.a : &.$.$.$.$.<.$.                            ",
"                                      $.$.$.<.a &.%.%.$.%.%.                                "
};
