/* XPM */
static char *_bcf94992d3040f1c2d7fc8f199227fdgphLsreuOpI8uIqO[] = {
/* columns rows colors chars-per-pixel */
"75 75 3 1 ",
"  c None",
". c #0E0C0C",
"X c #673931",
/* pixels */
"                                                                           ",
"                                                                           ",
"                                                                           ",
"                                                                           ",
"                                                                           ",
"                                                                           ",
"                                                                           ",
"                                                                           ",
"                                                                           ",
"                                                                           ",
"                                                                           ",
"                                                                           ",
"                                                                           ",
"                                                                           ",
"                                                                           ",
"                                                                           ",
"                                                                           ",
"                                                                           ",
"                                        ..                                 ",
"                                     .....                                 ",
"                                   .........                               ",
"                                   ...X......                              ",
"                                  ...........                              ",
"                                 ............                              ",
"                                 ..........                                ",
"                                 .........                                 ",
"                               .............                               ",
"                              ...............                              ",
"                             .................                             ",
"                             .................                             ",
"                            ..................                             ",
"                            .................                              ",
"                           .................                               ",
"                           ................                                ",
"                           ...............                                 ",
"                           .............                                   ",
"                          .............                                    ",
"                          ............                                     ",
"                          ..........                                       ",
"                          ..........                                       ",
"                           ........                                        ",
"                           ........                                        ",
"                           ........                                        ",
"                           ........                                        ",
"                           .......                                         ",
"                           ........                                        ",
"                           ........                                        ",
"                            .......                                        ",
"                            .......                                        ",
"                            .......                                        ",
"                             ......                                        ",
"                             .......                                       ",
"                              ......                                       ",
"                               .....                                       ",
"                               ....                                        ",
"                               .....                                       ",
"                                ...                                        ",
"                                ...                                        ",
"                                ..                                         ",
"                                ..                                         ",
"                                 .                                         ",
"                                 .                                         ",
"                                                                           ",
"                                                                           ",
"                                                                           ",
"                                                                           ",
"                                                                           ",
"                                                                           ",
"                                                                           ",
"                                                                           ",
"                                                                           ",
"                                                                           ",
"                                                                           ",
"                                                                           ",
"                                                                           "
};
