/* XPM */
static char *_0c6f53de65645b68db279ff34a994dfX4Rr3frvPZbOlSWf[] = {
/* columns rows colors chars-per-pixel */
"75 75 10 1 ",
"  c None",
". c black",
"X c #0E0C0C",
"o c #171516",
"O c #271F1B",
"+ c #323232",
"@ c #373334",
"# c #673931",
"$ c #595757",
"% c #807B7A",
/* pixels */
"                                                                           ",
"                                                                           ",
"                                                                           ",
"                                                                           ",
"                                                                           ",
"                                                                           ",
"                                                                           ",
"                                                                           ",
"                                           +++  ++++ ++                    ",
"                                          %%%    $     +++                 ",
"                                               %                           ",
"                                               %  %%$   $$$$++             ",
"                                                 % %%% $  $$$$+            ",
"                                                    %%% %$                 ",
"                                                     %% %%%$     +         ",
"                                            %%        %% %%    $$ +        ",
"                                                       %   % %% $ $+       ",
"                           XXXX                     %     %% %%$  $+       ",
"                         XXXXXX                  X          %%%%$ OO       ",
"                        XXXXXXX                   %%%       %%OOO O        ",
"                        XXXXXXXX               %          %%OOOO           ",
"                       XXXXXXXXX                                           ",
"                       XXXXX#X#X                        OOOO               ",
"                       XXXXXXXXX                      OOOO                 ",
"                       XXXXXXXXX                     OOO         %         ",
"                       XXXXXXXXX                     OO          %%        ",
"                       XXXXXXXXX                 O          %              ",
"                     XXXXXXXXXXXXX              o        %%                ",
"                   XXXXXXXXXXXXXXXX         oo oO       %%                 ",
"                  XXXXXXXXXXXXXXXXXX@       OO o                           ",
"                 XXXXXXXXXXXXXXXXXXXo@   OO @ o  OO                        ",
"                XXXXXXXXXXXXXXXXXXXXo @ OOOoo                              ",
"               XXXXXXXXXXXXXXXXXXXX@  @OO@ @                               ",
"               XXXXXXXXXXXXXXXXXXX@OO O@o @                                ",
"               XXXXXXXXXXXXXXXXXXOO   @@ @                                 ",
"               XXXXXXXXXXXXXXXXOOO     @                                   ",
"               XXXXXXXXXXXXXXXOOO             @                            ",
"               XXXXXXXXXXXXOXOO @@       @X   @                            ",
"               XXXXXXXXXXXXXO o@ o                                         ",
"                XXXXXXXXXX o  @ o@                                         ",
"                XXXXXXXXXXo @o o@                                          ",
"                XXXXXXXXX  oo @          X                                 ",
"                XXXXXXXXX  ooo  @X       X@                                ",
"                XXXXXXXXX . oo            @                                ",
"                XXXXXXXXX  ooo.                                            ",
"                XXXXXXXX      .  X                                         ",
"                XXXXXXXXX ooo   X                                          ",
"                XXXXXXXXX  oo.  @                                          ",
"                XXXXXXXXX  o  @@X                                          ",
"                 XXXXXXXX  o  X                                            ",
"                 XXXXXXXX  o  X                                            ",
"                 XXXXXXXX  o  X                                            ",
"                 XXXXXXXXX o                                               ",
"                  XXXXXXXX .                                               ",
"                  XXXXXXXX .                                               ",
"                  XXXXXXX                                                  ",
"                  XXXXXXXX                                                 ",
"                  XXXXXXX                                                  ",
"                  XXXXXXX                                                  ",
"                   XXXXX                                                   ",
"                   XXXXX                                                   ",
"                   XXXXX                                                   ",
"                    XXXX                                                   ",
"                    XXX                                                    ",
"                    XXX                                                    ",
"                     XX                                                    ",
"                     XX                                                    ",
"                     XX                                                    ",
"                      X                                                    ",
"                      X                                                    ",
"                      X                                                    ",
"                                                                           ",
"                                                                           ",
"                                                                           ",
"                                                                           "
};
