/* XPM */
static char *b0422dd0200d4056804e6219617d23a3ydXUNGhya0mPsV41[] = {
/* columns rows colors chars-per-pixel */
"75 75 105 2 ",
"   c None",
".  c black",
"X  c #050000",
"o  c #030404",
"O  c #040707",
"+  c #080000",
"@  c #090000",
"#  c #0D0000",
"$  c #090405",
"%  c #0D0404",
"&  c #050709",
"*  c #050909",
"=  c #070A0A",
"-  c #070A0C",
";  c #080D0F",
":  c #080E0E",
">  c #100000",
",  c #120101",
"<  c #130101",
"1  c #180101",
"2  c #190101",
"3  c #1F0101",
"4  c #150808",
"5  c #16090A",
"6  c #16090B",
"7  c #0F1619",
"8  c #1B1516",
"9  c #200101",
"0  c #2B0F01",
"q  c #220709",
"w  c #220808",
"e  c #21090B",
"r  c #22090B",
"t  c #230D0F",
"y  c #260F0F",
"u  c #261D1D",
"i  c #172427",
"p  c #23363A",
"a  c #323232",
"s  c #393030",
"d  c #3E3535",
"f  c #393939",
"g  c #551E02",
"h  c #422313",
"j  c #775123",
"k  c #775124",
"l  c #775125",
"z  c #775224",
"x  c gray31",
"c  c #505050",
"v  c gray32",
"b  c #5F5F5F",
"n  c #786B4D",
"m  c #7A6B4C",
"M  c #7B6D4C",
"N  c #7D6E4D",
"B  c #586062",
"V  c #616567",
"C  c #646464",
"Z  c DimGray",
"A  c #6A6A6A",
"S  c gray42",
"D  c #6C6C6C",
"F  c #747474",
"G  c #AB3D05",
"H  c #836338",
"J  c #B97D38",
"K  c #BB7E3A",
"L  c #BC7F39",
"P  c #836F4D",
"I  c #84704C",
"U  c #84714D",
"Y  c #85714D",
"T  c #86714D",
"R  c #84724D",
"E  c #85714E",
"W  c #8C734D",
"Q  c #8F754D",
"!  c #8E764C",
"~  c #8F764C",
"^  c #8E764D",
"/  c #8F764D",
"(  c #8F774D",
")  c #8F764E",
"_  c #90764D",
"`  c #90774D",
"'  c #A66646",
"]  c #A56B4D",
"[  c #BC8039",
"{  c #BE813A",
"}  c #C0823B",
"|  c #C1833C",
" . c #AE854D",
".. c #B1874D",
"X. c #B3864C",
"o. c #BB8C4D",
"O. c #A28373",
"+. c #D3964D",
"@. c #FBAA4D",
"#. c #FCBD75",
"$. c gray52",
"%. c #898989",
"&. c gray62",
"*. c #9F9F9F",
"=. c #FDD09D",
/* pixels */
"                                                                                                                                                      ",
"                                                                                                                                                      ",
"                                                                                                                                                      ",
"                                                                                                                                                      ",
"                                                                                                                                                      ",
"                                                                      / /                                                                             ",
"                                                                    / / / /                                                                           ",
"                                                                  / H H H H /                                                                         ",
"                                                                  / J @.@.J /                                                                         ",
"                                                                  / J =.=.J /                                                                         ",
"                                                                W / J #.#.J /                                                                         ",
"                                                          / / / / / k k k k / / / / )                                                                 ",
"                                                        Y / / / / / ( k k ` ) ( / / / Y                                                               ",
"                                                      Y / k J J J k X.{ J X.k J J J k / U                                                             ",
"                                                      / / k @.=.@.k | =.=.+.k @.=.@.k / /                                                             ",
"                                                      / / k @.=.@.k K =.=.{ k @.=.@.k / /                                                             ",
"                                                        / k J J J k  .{ J o.k J J J k ` Y                                                             ",
"                                                        Y / / / / / M . . M / / / / / Y                                                               ",
"                                                          ` / / / /   . .   / / / / `                                                                 ",
"                                                              N n 7   . .                                                                             ",
"                                                              ; . .   . . ;                                                                           ",
"                                                              . .     . . . .                                                                         ",
"                                                              .       . . p .                                                                         ",
"                                                              . .     . . i .                                                                         ",
"                                                              . . .   . . . .                                                                         ",
"                                                              . g . o . . 0 .                                                                         ",
"                                                              . G . ] . . g .                                                                         ",
"                                                              . . . c . . . .                                                                         ",
"                                                              . g . O.%.$.h .                                                                         ",
"                                                              . G . *.*.*.A .                                                                         ",
"                                                              . . . ' . . A .                                                                         ",
"                                                                . . *.. . A B                                                                         ",
"                                                                < . f . . A A D                                                                       ",
"                                                            < < < . f . . d A A V                                                                     ",
"                                                      5 5 < < < < f c . . < s C C 8                                                                   ",
"                                                      < b b 9 9 < f D *.*.u < . . <                                                                   ",
"                                                      < b A A A A A C . . f < < 2 9                                                                   ",
"                                                      < a A A A A A F x x u < < 2 9                                                                   ",
"                                                      . @ . . . . . f . . < 9 9 9 9                                                                   ",
"                                                        @ < 9 9 9 9 f . . < < 9 9 9                                                                   ",
"                                                        @ < 9 9 9 9 y . . < 9 9 9 9                                                                   ",
"                                                        @ < 9 9 9 9 9 . . 9 9 9 9 9                                                                   ",
"                                                        @ < 3 9 9 9 9 . . 9 9 9 9 9                                                                   ",
"                                                        @ < 9 9 9 9 9 . . 9 9 9 9 .                                                                   ",
"                                                        . 9 9 9 9 9 9 . . 9 9 9 9 .                                                                   ",
"                                                        . . 9 9 9 9 9 . . 9 9 9 9                                                                     ",
"                                                          . @ 9 9 9 9 . . 9 9 9 #                                                                     ",
"                                                          .   < 9 9 9 9 9 9 9 < .                                                                     ",
"                                                          .   X 9 9 9 9 9 9 < . *                                                                     ",
"                                                          .   < 9 9 9 9 9 2 . .                                                                       ",
"                                                              y 9 9 9 9 9 @ . .                                                                       ",
"                                                              e 9 9 9 9 . .   .                                                                       ",
"                                                                9 9 2 2 . =                                                                           ",
"                                                              q 9 < . < . .                                                                           ",
"                                                              e . < . . < .                                                                           ",
"                                                              % . @ X . @ . *                                                                         ",
"                                                              < . . @ . . . .                                                                         ",
"                                                            3 . . . @ . . . . .                                                                       ",
"                                                          e . . . . . . . . . .                                                                       ",
"                                                          < . . . . . . . . . . *                                                                     ",
"                                                        6 . . . . . . . . . . . &                                                                     ",
"                                                        $ . . . . . . . . . . . *                                                                     ",
"                                                        . . . . . . . . . . . . -                                                                     ",
"                                                        . . . . . . . . . . . . .                                                                     ",
"                                                      . . . . . . . . . . . . . .                                                                     ",
"                                                    . . . . . . . . . . . . . . .                                                                     ",
"                                                    . . . . . . . . . . . . . . . .                                                                   ",
"                                                * . . . . . . . . . . . . . . . . . . *                                                               ",
"                                            * . . . . . . . . . . . . . . . . . . . . . .                                                             ",
"                                                                                                                                                      ",
"                                                                                                                                                      ",
"                                                                                                                                                      ",
"                                                                                                                                                      ",
"                                                                                                                                                      ",
"                                                                                                                                                      "
};
