/* XPM */
static char *_81ea9d3dbe24013f0f30df50e0043cbREIwdm4mbuMF9p9P[] = {
/* columns rows colors chars-per-pixel */
"75 75 95 2 ",
"   c None",
".  c black",
"X  c #050000",
"o  c #040507",
"O  c #040606",
"+  c #040607",
"@  c #060707",
"#  c #080000",
"$  c #090000",
"%  c #0D0000",
"&  c #090404",
"*  c #0D0404",
"=  c #040608",
"-  c #050709",
";  c #07090A",
":  c #070A0A",
">  c #070A0B",
",  c #070A0C",
"<  c #100000",
"1  c #130101",
"2  c #130606",
"3  c #140406",
"4  c #150506",
"5  c #180101",
"6  c #190101",
"7  c #170A0A",
"8  c #1A1415",
"9  c #200101",
"0  c #2B0F01",
"q  c #200608",
"w  c #210709",
"e  c #220808",
"r  c #220C0C",
"t  c #260F0F",
"y  c #261D1D",
"u  c #172427",
"i  c #23363A",
"p  c #323232",
"a  c #393030",
"s  c #3E3535",
"d  c #393939",
"f  c #551E02",
"g  c #422719",
"h  c #6B512B",
"j  c #775124",
"k  c #2E474E",
"l  c #2F484E",
"z  c #2F484F",
"x  c gray31",
"c  c gray32",
"v  c #5F5F5F",
"b  c #76694D",
"n  c #565F60",
"m  c #646464",
"M  c #6A6A6A",
"N  c gray42",
"B  c #6C6C6C",
"V  c #747474",
"C  c #AB3D05",
"Z  c #8F754C",
"A  c #8F754D",
"S  c #8F764C",
"D  c #8F774C",
"F  c #8E764D",
"G  c #8F764D",
"H  c #8F774D",
"J  c #8F764E",
"K  c #90764D",
"L  c #90774D",
"P  c #8A7052",
"I  c #A56D51",
"U  c #A56E52",
"Y  c #AD854C",
"T  c #A28678",
"R  c #AC9270",
"E  c #E09E4C",
"W  c #E39F4C",
"Q  c #EAA24C",
"!  c #F3A74D",
"~  c #F9A94C",
"^  c #F9A84D",
"/  c #FBAA4C",
"(  c #FBAA4D",
")  c #E6A75F",
"_  c #E7A85E",
"`  c #CBA477",
"'  c #FBB361",
"]  c #FCBC75",
"[  c #FCBD75",
"{  c #848484",
"}  c gray62",
"|  c #9F9F9F",
" . c #FCC689",
".. c #FDD09D",
"X. c #FDD19D",
/* pixels */
"                                                                                                                                                      ",
"                                                                                                                                                      ",
"                                                                        L                                                                             ",
"                                                                        H                                                                             ",
"                                                                        Y                                                                             ",
"                                                                    L                                                                                 ",
"                                                                      ( ~   H                                                                         ",
"                                                                  W ( [ [ ! ~                                                                         ",
"                                                                L ( [ ....[ (                                                                         ",
"                                                                L ~ ........( (                                                                       ",
"                                                          L     ( (  ..... .( (     L                                                                 ",
"                                                              ( ( ( ( ....( ( ( (                                                                     ",
"                                                          ( ( ( ( ( ( ( ( ( ( ( ( (                                                                   ",
"                                                    L   ~ ( [ ..[ ( ' .... .( (  .[ ( ~ L                                                             ",
"                                          H   L L E ~   ( ..........[ ......( ........(   H H H                                                       ",
"                                                    (   ( ..........[ ......( ........(   H H H H                                                     ",
"                                                        ~ ~ [ ..[ ( ' .... .( (  .[ ~ ~   H                                                           ",
"                                                          ( ( ( ( ( ( ( ..( ( ( ( (                                                                   ",
"                                                            H _ ( ` ( ( ( ( ( L L                                                                     ",
"                                                                R P ) ( ( Q                                                                           ",
"                                                              = . . b j ( h                                                                           ",
"                                                              . . z z j ( . .                                                                         ",
"                                                              . z z z . j i .                                                                         ",
"                                                              . . z z . j u .                                                                         ",
"                                                              . . . k . . . .                                                                         ",
"                                                              . f . > . . 0 .                                                                         ",
"                                                              . C . I . . f .                                                                         ",
"                                                              . . . x . . . .                                                                         ",
"                                                              . f . T { { g .                                                                         ",
"                                                              . C . | | | M .                                                                         ",
"                                                              . . . I . . M .                                                                         ",
"                                                                . . | . . M n                                                                         ",
"                                                              2 1 . d . . M M M                                                                       ",
"                                                            1 1 1 . d . . s M M                                                                       ",
"                                                      4 4 1 1 1 1 d c . . 1 a m m 8                                                                   ",
"                                                      1 v v 9 9 1 d B | | y 1 . . 1                                                                   ",
"                                                      1 v M M M N N m . . d 1 1 6 9                                                                   ",
"                                                      1 p M M M M N V x c y 1 1 6 9                                                                   ",
"                                                      . $ . . . . . d . . 1 6 9 9 9                                                                   ",
"                                                        $ 1 9 9 9 9 d . . 1 1 9 9 9                                                                   ",
"                                                        $ 1 9 9 9 9 t . . 1 9 9 9 9                                                                   ",
"                                                        $ 1 9 9 9 9 9 . . 9 9 9 9 9                                                                   ",
"                                                        $ 1 9 9 9 9 9 . . 9 9 9 9 9                                                                   ",
"                                                        $ 1 9 9 9 9 9 . . 9 9 9 9 .                                                                   ",
"                                                        . 9 9 9 9 9 9 . . 9 9 9 9 .                                                                   ",
"                                                        . . 9 9 9 9 9 . . 9 9 9 9                                                                     ",
"                                                          . $ 9 9 9 9 . . 9 9 9 %                                                                     ",
"                                                          .   % 9 9 9 9 9 9 9 1 .                                                                     ",
"                                                          .   $ 9 9 9 9 9 9 1 . ,                                                                     ",
"                                                          .   1 9 9 9 9 9 6 . .                                                                       ",
"                                                              r 9 9 9 9 9 $ . .                                                                       ",
"                                                              e 9 9 9 9 . .   .                                                                       ",
"                                                                9 9 6 6 . ;                                                                           ",
"                                                              q 9 1 . 1 . .                                                                           ",
"                                                              t . 1 . . 1 .                                                                           ",
"                                                              * . $ X . $ . ;                                                                         ",
"                                                              1 . . $ . . . .                                                                         ",
"                                                            6 . . . $ . . . . .                                                                       ",
"                                                          w . . . . . . . . . .                                                                       ",
"                                                          1 . . . . . . . . . . @                                                                     ",
"                                                        7 . . . . . . . . . . . @                                                                     ",
"                                                        & . . . . . . . . . . . =                                                                     ",
"                                                        . . . . . . . . . . . . =                                                                     ",
"                                                        . . . . . . . . . . . . .                                                                     ",
"                                                      . . . . . . . . . . . . . .                                                                     ",
"                                                    . . . . . . . . . . . . . . .                                                                     ",
"                                                    . . . . . . . . . . . . . . . .                                                                   ",
"                                                ; . . . . . . . . . . . . . . . . . . @                                                               ",
"                                            @ . . . . . . . . . . . . . . . . . . . . . .                                                             ",
"                                                                                                                                                      ",
"                                                                                                                                                      ",
"                                                                                                                                                      ",
"                                                                                                                                                      ",
"                                                                                                                                                      ",
"                                                                                                                                                      "
};
