/* XPM */
static char *ab809263574f4e5b820e975cab6b800c1SK0Whr33sqD77QU[] = {
/* columns rows colors chars-per-pixel */
"75 75 80 1 ",
"  c None",
". c black",
"X c #050000",
"o c #040507",
"O c #040606",
"+ c #040607",
"@ c #040707",
"# c #060707",
"$ c #080000",
"% c #090000",
"& c #0D0000",
"* c #080404",
"= c #0D0404",
"- c #050709",
"; c #060709",
": c #040808",
"> c #050909",
", c #05090A",
"< c #05090B",
"1 c #07090A",
"2 c #070A0A",
"3 c #080C0E",
"4 c #100000",
"5 c #130101",
"6 c #150506",
"7 c #160406",
"8 c #150606",
"9 c #180101",
"0 c #190101",
"q c #1F0101",
"w c #160709",
"e c #0D1315",
"r c #191113",
"t c #121D1F",
"y c #200101",
"u c #210606",
"i c #200707",
"p c #2B0F01",
"a c #200608",
"s c #200808",
"d c #220C0E",
"f c #260F0F",
"g c #261D1D",
"h c #152123",
"j c #162123",
"k c #162124",
"l c #162224",
"z c #162225",
"x c #162226",
"c c #172326",
"v c #172427",
"b c #323232",
"n c #393030",
"m c #3E3535",
"M c #393939",
"N c #551E02",
"B c #412415",
"V c #6D4229",
"C c #2F484E",
"Z c #4E4E4E",
"A c gray31",
"S c #535353",
"D c #5F5F5F",
"F c #565F61",
"G c #606466",
"H c #646464",
"J c #6A6A6A",
"K c #6C6C6C",
"L c #747474",
"P c #AB3D05",
"I c #D25C20",
"U c #F97C3C",
"Y c #946245",
"T c #A6694A",
"R c #A56E52",
"E c #A28171",
"W c #868686",
"Q c #8B8B8B",
"! c #9F9F9F",
"~ c #A0A0A0",
/* pixels */
"                                                                           ",
"                                                                           ",
"                                                                           ",
"                                                                           ",
"                                                                           ",
"                                                                           ",
"                                                                           ",
"                                  <;;;                                     ",
"                                  vCCv                                     ",
"                                  vPUv                                     ",
"                                  vYVv                                     ",
"                                  ....                                     ",
"                                   ..                                      ",
"                             .vvl3 .. .vll.                                ",
"                             .CIC..PU..CIC.                                ",
"                             .CIC..UP..CIC.                                ",
"                             .lht< .. .vll.                                ",
"                                   ..                                      ",
"                                   ..                                      ",
"                                 e ..                                      ",
"                               ;.. ..1                                     ",
"                               ..  ....                                    ",
"                               .   .. .                                    ",
"                               ..  ..1.                                    ",
"                               ... ....                                    ",
"                               .N.O..p.                                    ",
"                               .P.R..N.                                    ",
"                               ...Z....                                    ",
"                               .N.EQWB.                                    ",
"                               .P.~!!J.                                    ",
"                               ...T..J.                                    ",
"                                ..!..JF                                    ",
"                               85.M..JJJ                                   ",
"                              555.M..mJJG                                  ",
"                           885555MS..5nHHr                                 ",
"                           5DDyy5MK!~g5..5                                 ",
"                           5DJJJJJH..M550y                                 ",
"                           5bJJJJJLSZg550y                                 ",
"                           .%.....M..5yyyy                                 ",
"                            %5yyyyM..55yyy                                 ",
"                            %5yyyyf..5yyyy                                 ",
"                            %5yyyyy..yyyyy                                 ",
"                            %5yyyyy..yyyyy                                 ",
"                            %5yyyyy..yyyy.                                 ",
"                            .yyyyyy..yyyy.                                 ",
"                            ..yyyyy..yyyy                                  ",
"                             .%yyyy..yyy&                                  ",
"                             . &yyyyyyy5.                                  ",
"                             . %yyyyyy5.O                                  ",
"                             . 5yyyyy0..                                   ",
"                               dyyyyy%..                                   ",
"                               ayyyy.. .                                   ",
"                                yy00.<                                     ",
"                               iy5.5..                                     ",
"                               i.5..5.                                     ",
"                               =.%X.%.2                                    ",
"                               5..%....                                    ",
"                              q...%.....                                   ",
"                             s..........                                   ",
"                             5..........;                                  ",
"                            w...........O                                  ",
"                            *...........O                                  ",
"                            ............<                                  ",
"                            .............                                  ",
"                           ..............                                  ",
"                          ...............                                  ",
"                          ................                                 ",
"                        2..................<                               ",
"                      O......................                              ",
"                                                                           ",
"                                                                           ",
"                                                                           ",
"                                                                           ",
"                                                                           ",
"                                                                           "
};
