/* XPM */
static char *ea3590cb3f5849f5a10655a26ef0fee0wdwhh2BVmV4SsxeJ[] = {
/* columns rows colors chars-per-pixel */
"75 75 24 1 ",
"  c None",
". c #262D33",
"X c #272D33",
"o c #262E33",
"O c #272E33",
"+ c #262F33",
"@ c #272F33",
"# c #262D34",
"$ c #272D34",
"% c #272D35",
"& c #262E34",
"* c #272E34",
"= c #262F34",
"- c #272F34",
"; c #262E35",
": c #272E35",
"> c #272F35",
", c #282D33",
"< c #282E33",
"1 c #282D34",
"2 c #282D35",
"3 c #282E34",
"4 c #282F34",
"5 c #282E35",
/* pixels */
"                                                                           ",
"                                                                           ",
"   *        4*        *        *        **        *        *        4*     ",
"  O*4       *4       **       =*4       >*       **4       4=       **     ",
"  ***       **       **       **4       **       =*4       *4       **     ",
"  ***       O*       ***      **4       **       4**      **4       **4    ",
"**<***===4****O*=4********=*=***4**==*4*****4=*=*******==4*****=***4****   ",
"**************************4*4*******4********4*****************4*********  ",
"************************************************************************O  ",
"***************************************4*********************************  ",
" ***=4     4**4     ****     4****     ****     *****     ****     ****    ",
"  **4       **       **       >**       >*       **4       *=       **     ",
"  O*4       **       **       >*4       >%       4*4       *=       **     ",
"  O*4       **       **       >*4       *%       =*4       *=       **     ",
"  O*4       **       **       >*4       *%       **<       *4       **     ",
"  O*4       **       **       >*4       >%       **<       4=       **     ",
"  O*4       **       **       >*4       **       4*<       *=       **     ",
"  O*4       **       **       >*4       >*       =*<       *4       **     ",
"  O*4       **       **       >*4       >%       4*<       *=       **     ",
"  O*4       **       **       >*4       *%       =*<       *4       %O     ",
"  O*4       **       **       >*4       *%       =*<       *=       **     ",
"  O*4       **       **       >*4       ;%       4*<       *4       **     ",
"  O*4       **       **       >*4       **       4*<       *=       **     ",
"  O*4       **       **       >*4       **       =*<       *4       %*     ",
"  O*4       **       **       >*4       >%       4*<       *=       **     ",
"  O*4       **       **       >44       *%       =*<       *4       **     ",
"  O*4       **       **       =*4       >*       =*<       *=       **     ",
"  O*4       **       **       >*4       **       4*<       *4       %O     ",
"  O*4       **       **       4*4       **       4*<       *=       **     ",
"  O*4       **       **       =*4       **       =*<       *4       **     ",
"  O*4       **       **       =*4       **       4*<       *=       **     ",
"  O*4       **       **       4*4       **       =*<       *4       %*     ",
"  **4       **       **       >*4       >%       =44       *=       **     ",
"  **4       **       **       >*4       *%       **4       *4       **     ",
"  **4       **       **       >*4       >*       **4       *=       **     ",
"  **4       **       **       >*4       **       **4       *4       %O     ",
"  **4       **       **       >*4       >%       **<       *=       **     ",
"  O*4       **       **       >*4       >*       **<       *4       **     ",
"  O*4       **       **       >*4       **       4*<       *=       **     ",
"  O*4       **       **       >*4       **       =*<       *4       %*     ",
"  O*4       **       **       >*4       >%       4*<       *=       **     ",
"  O*4       **       **       >*4       >*       =*<       *4       **     ",
"  O*4       **       **       >*4       **       =*<       *=       **     ",
"  O*4       **       **       >*4       >*       4*<       *4       %O     ",
"  O*4       **       **       >*4       >%       4*<       *=       **     ",
"  O*4       **       **       >*4       *%       =*<       *4       **     ",
"  O*4       **       **       >*4       *%       4*<       *=       **     ",
"  O*4       **       **       >*4       ;%       =*<       *4       %*     ",
"  O*4       **       **       >*4       **       4*<       *=       **     ",
"  O*4       **       **       >*4       >*       =*<       *4       **     ",
"  O*4       **       **       >*4       >%       4*<       *=       **     ",
"  O*4       **       **       >*4       *%       =*<       *4       %O     ",
"  O*4       **       **       >*4       *%       =*<       *=       **     ",
"  O*4       **       **       >*4       ;%       4*<       *4       **     ",
"  O*4       **       **       >*4       **       4*<       *=       **     ",
"  O*4       **       **       >*4       **       =*<       *4       %*     ",
"  O*4       **       **       >*4       >%       4*<       *=       **     ",
"  O*4       **       **       >*4       *%       =*<       *4       **     ",
"  O*4       **       **       >*4       >*       =*<       *=       **     ",
"  O*4       **       **       >*4       **       4*<       *4       %O     ",
"  O*4       **       **       >*4       **       4*<       *=       **     ",
"  O*4       **       **       >*4       **       =*<       *4       **     ",
"  O*4       **       **       >*4       **       4*<       *=       **     ",
"  O*4       **       **       >*4       **       =*<       *4       %*     ",
"  O*4       **       **       **4       **       **4       **       **     ",
"  O*4       **       **       =*4       >*       =**       *=       **     ",
" 4****     4***     O**4      4***     ****     4>**      =*4*     **4*    ",
"*O*********************==4******4******>******************4*************O  ",
"************************************************************************O  ",
"*************************************************************************  ",
"*************4******************>******>******************O*O**********4   ",
"  ***      **4       =*O      ***       **       ***      4**       ***    ",
"  **4       **       **       **4       **       **4       *4       **     ",
"  **4       **       **       =*4       **       **4       *=       **     ",
"  O*4       **       **       4*4       >*       **<       **       **     "
};
