/* XPM */
static char *_72dc3473df34c2cc242c575b376d2bcbDDVALyZJyoYQpfL[] = {
/* columns rows colors chars-per-pixel */
"75 75 40 1 ",
"  c #436623",
". c #446623",
"X c #446723",
"o c #466823",
"O c #476823",
"+ c #496A23",
"@ c #4B6B22",
"# c #4A6B23",
"$ c #4C6C22",
"% c #4E6D22",
"& c #4F6E22",
"* c #506E22",
"= c #506F22",
"- c #527022",
"; c #537022",
": c #547122",
"> c #557222",
", c #567222",
"< c #567322",
"1 c #577322",
"2 c #597422",
"3 c #597522",
"4 c #5C7621",
"5 c #5C7721",
"6 c #5F7821",
"7 c #607921",
"8 c #617921",
"9 c #637B21",
"0 c #647B21",
"q c #667D21",
"w c #687E21",
"e c #697F21",
"r c #6A8021",
"t c #6B8021",
"y c #6C8120",
"u c #6D8220",
"i c #6F8320",
"p c #708320",
"a c #718420",
"s c #748620",
/* pixels */
"                                                                           ",
"                                                                           ",
"                                                                           ",
"                                                                   X       ",
"                                                                 $;:+      ",
"                                                                X:q7$      ",
"                                                                 3tq;      ",
"                                                                X6tq&      ",
"                                                                 2tq&X     ",
"                                                                 3uq$X     ",
"                   o o                                          O5u9:      ",
"                 o+==+                                           $63@      ",
"                  =q7;                                           O#+       ",
"                  :uq=                                                     ",
"                  ;uw:                                                     ",
"               .o+5uw;                                                     ",
"               o=5qpw:..                                                   ",
"               +5assw=                                                     ",
"               +5sssw:                                                     ",
"               +5assw=                         .                           ",
"               +7aaw7=.                       o$@o.                        ",
"               +7aw2=o                        $65=..                       ",
"               +5a7$                          :we:..                       ",
"               +7a7+                          :we2..                       ",
"               +5a7=                          :wu:                         ",
"               o=7:O                          :wt:                         ",
"               .++@O                          :ww1                         ",
"                . ..                          :ww1                         ",
"                                              :wt2..                       ",
"                                             .;qw:                         ",
"                                              @::$                         ",
"                                              .o..                         ",
"                                                                           ",
"                                                                           ",
"                                                                           ",
"                                                                           ",
"                                                                           ",
"                                                                           ",
"                                                                           ",
"                                                                           ",
"                                                                           ",
"                                                                           ",
"                                                                           ",
"                                                                           ",
"                                                                           ",
"                                                                           ",
"                                                                           ",
"                                                                           ",
"                     +@#                                                   ",
"                    @26;                                                   ",
"                    $9t2O                                                  ",
"                    ;9a2                                                   ",
"                    &9i3O                                       O          ",
"                    &qt3                                      o$;O         ",
"                    &qi3O                                     +5t3O        ",
"                   o$9i3                                      +6a6#        ",
"                    $9i5X                                     +7a7#        ",
"                    $9t5o                                    o$7a6#        ",
"                    @;6&                                    +;7wa6+        ",
"                    OOOO                                    ;0apa6+        ",
"                                                            ;qssa6#        ",
"                                                            ;qssi6#        ",
"                                                            ;taat3         ",
"                                                            ;qi93$O        ",
"                                                            ;qt3           ",
"                                                            @35$           ",
"                                                             O+O           ",
"                                                                           ",
"                                                                           ",
"                                                                           ",
"                                                                           ",
"                                                                           ",
"                                                                           ",
"                                                                           ",
"                                                                           "
};
