/* XPM */
static char *ffdffcbda44c45feb2f20466cbb230f7YAZSHD8Eo4wPabFf[] = {
/* columns rows colors chars-per-pixel */
"75 75 10 1 ",
"  c None",
". c black",
"X c #0E0C0C",
"o c #171516",
"O c #271F1B",
"+ c #323232",
"@ c #373334",
"# c #673931",
"$ c #595757",
"% c #807B7A",
/* pixels */
"                                                                           ",
"                                                                           ",
"                                                                           ",
"                                                                           ",
"                                                                           ",
"                                                                           ",
"                                                                           ",
"                                                                           ",
"                                                                           ",
"                                                                           ",
"                                                                           ",
"                                  ++++++++++++                             ",
"                               +++$$$$$$$$$%%%%                            ",
"                             ++$$$$$$$$$%%%%                               ",
"                           ++$$$$$$$$%%%%%                                 ",
"                          +$$$$$$$%%%%%%                                   ",
"                        ++$$$$$$%%%%%%                                     ",
"                       +$$$$$$%%%%%%                                       ",
"                      +$$$$$%%%%%%%                                        ",
"                     +$$$$%%%XXXX%                                         ",
"                     +$$$$%XXXXXX                                          ",
"                     OOO$%XXXXXXX                                          ",
"                      OOOOXXXXXXXX                                         ",
"                         XXXXXXXXX                                         ",
"                         XXXXX#X#X                                         ",
"                         XXXXXXXXX                                         ",
"                         XXXXXXXXX                                         ",
"                         XXXXXXXXX                                         ",
"                         XXXXXXXXXOOOO                                     ",
"                       XXXXXXXXXXXXXOOOO                                   ",
"                     XXXXXXXXXXXXXXXX OOOO                                 ",
"                    XXXXXXXXXXXXXXXXXX  OOOO                               ",
"                   XXXXXXXXXXXXXXXXXXX    OOOOo                            ",
"                  XXXXXXXXXXXXXXXXXXXX      OOOO                           ",
"                 XXXXXXXXXXXXXXXXXXXX@      o@OOOO                         ",
"                 XXXXXXXXXXXXXXXXXXXo@     o@+o OOOO                       ",
"                 XXXXXXXXXXXXXXXXXX@oo@   ooo     OOOO                     ",
"                 XXXXXXXXXXXXXXXXX@@ @@  @o@        OOOO                   ",
"                 XXXXXXXXXXXXXXXX@o@  o@o@@           OOOO                 ",
"                 XXXXXXXXXXXXXX@@o@@  @@o@              OOOO               ",
"                 XXXXXXXXXXXXX@oo@ o   @o                 OOOO             ",
"                 XXXXXXXXXXXXoo@@ o@                        OO             ",
"                 XXXXXXXXXXXoo@ooo@                                        ",
"                  XXXXXXXXXX@oo @@                                         ",
"                   XXXXXXXXXXooo                                           ",
"                   XXXXXXXXX.Xoo                                           ",
"                    XXXXXXXXXooo.                                          ",
"                    XXXXXXXXooo .                                          ",
"                    XXXXXXXXooo .                                          ",
"                     XXXXXXXXoo.                                           ",
"                     XXXXXXXXo                                             ",
"                    XXXXXXXXXo                                             ",
"                   XXXXXXXXX o                                             ",
"                   XXXXXXXXX o                                             ",
"                  XXXXXXXXX  o                                             ",
"                  XXXXXXXXX  .                                             ",
"                  XXXXXXXX   .                                             ",
"                  XXXXXXXX                                                 ",
"                   XXXXXX                                                  ",
"                   XXXXXX                                                  ",
"                    XXXXX                                                  ",
"                     XXXX                                                  ",
"                      XXXX                                                 ",
"                      XXXX                                                 ",
"                       XXX                                                 ",
"                       XXX                                                 ",
"                        XX                                                 ",
"                        XX                                                 ",
"                         X                                                 ",
"                         XX                                                ",
"                          X                                                ",
"                                                                           ",
"                                                                           ",
"                                                                           ",
"                                                                           "
};
